<svg width="21" height="21" viewBox="0 0 21 21" fill="none" xmlns="http://www.w3.org/2000/svg">
<path fill-rule="evenodd" clip-rule="evenodd" d="M10.026 0.0167394C5.05431 0.0250457 0.92618 3.64278 0.0957384 8.36667L7.31823 8.35461L7.31405 5.85461L10.0915 5.84997L10.0957 8.34997L12.3182 8.34625C14.8182 8.34208 16.2092 9.95059 16.213 12.2289C16.2143 12.9506 16.1047 13.7291 15.9951 14.451L13.4393 14.4552L13.4371 13.1777C13.4351 11.9552 12.8238 11.6787 12.0455 11.68L10.1013 11.6833L10.1057 14.35L7.32751 13.9104L7.3238 11.6879L0.101307 11.7C0.947529 16.4211 5.08689 20.025 10.0594 20.0167C15.5902 20.0075 20.1077 15.4999 20.0985 9.99992C20.0893 4.49993 15.5568 0.00749897 10.026 0.0167394Z" fill="white"/>
</svg>
