<svg width="16" height="16" viewBox="0 0 16 16" fill="none" xmlns="http://www.w3.org/2000/svg">
<path d="M10.784 8.01219C10.7816 6.5786 9.60968 5.41064 8.17609 5.41303C6.7425 5.41543 5.57453 6.5873 5.57693 8.02089C5.57932 9.45448 6.7512 10.6225 8.18479 10.6201C9.61838 10.6177 10.7863 9.44578 10.784 8.01219ZM8.19348 15.8251C9.27161 15.8233 10.34 15.8313 11.4161 15.769C12.6659 15.7063 13.7748 15.4193 14.6874 14.5037C15.6019 13.5862 15.8832 12.4783 15.9417 11.2282C16.0004 10.15 15.9889 9.08162 15.9871 8.00545C15.9853 6.92733 15.9933 5.85896 15.9309 4.78289C15.8683 3.53299 15.5813 2.42409 14.6657 1.51156C13.7481 0.597075 12.6402 0.315722 11.3901 0.257264C10.3119 0.198518 9.24357 0.210069 8.1674 0.211867C7.09123 0.213665 6.0209 0.205687 4.94483 0.268032C3.69494 0.330667 2.58604 0.617677 1.6735 1.53327C0.75902 2.45081 0.477668 3.5587 0.419209 4.8088C0.360464 5.88703 0.372013 6.95537 0.373811 8.03154C0.375613 9.10966 0.367633 10.178 0.429978 11.2541C0.492613 12.504 0.779622 13.6129 1.69521 14.5254C2.61276 15.4399 3.72065 15.7213 4.97075 15.7797C6.04702 15.8404 7.11536 15.8269 8.19348 15.8251ZM4.17458 8.02324C4.17088 5.80644 5.95695 4.01439 8.17375 4.01069C10.3905 4.00699 12.1826 5.79306 12.1863 8.00985C12.19 10.2266 10.4039 12.0187 8.18713 12.0224C5.97034 12.0261 4.17829 10.24 4.17458 8.02324ZM11.4218 12.1811C11.4209 11.6635 11.8382 11.2448 12.3558 11.2439C12.8733 11.2431 13.292 11.6604 13.2929 12.1779C13.2937 12.6955 12.8765 13.1142 12.3589 13.115C12.236 13.1154 12.1142 13.0915 12.0006 13.0447C11.8869 12.998 11.7836 12.9292 11.6966 12.8425C11.6095 12.7557 11.5404 12.6526 11.4933 12.5391C11.4461 12.4256 11.4218 12.304 11.4218 12.1811Z" fill="white"/>
</svg>
