<svg width="20" height="20" viewBox="0 0 20 20" fill="none" xmlns="http://www.w3.org/2000/svg">
<path fill-rule="evenodd" clip-rule="evenodd" d="M17.6363 0.837276C18.0425 0.836597 18.4324 0.997318 18.7201 1.28408C19.0078 1.57084 19.1698 1.96016 19.1705 2.36638L19.196 17.6347C19.1967 17.836 19.1577 18.0355 19.0811 18.2217C19.0046 18.4079 18.8921 18.5771 18.7501 18.7198C18.608 18.8625 18.4393 18.9757 18.2534 19.0531C18.0675 19.1304 17.8682 19.1704 17.6669 19.1706L2.39862 19.1961C2.19727 19.1966 1.99779 19.1575 1.81158 19.0809C1.62538 19.0043 1.4561 18.8917 1.31345 18.7496C1.1708 18.6075 1.05756 18.4387 0.980221 18.2527C0.902882 18.0668 0.862956 17.8675 0.86273 17.6662L0.83722 2.39701C0.836884 2.1958 0.876195 1.99649 0.952911 1.81048C1.02962 1.62447 1.14224 1.45539 1.28432 1.31292C1.4264 1.17044 1.59516 1.05735 1.78095 0.980118C1.96675 0.902883 2.16595 0.863013 2.36716 0.862787L17.6363 0.837276ZM12.1901 8.10305L12.1942 10.5855L10.9476 10.5876C11.6648 10.9448 12.3114 11.8604 12.3137 13.2379C12.3181 15.8787 10.8916 16.5069 8.27248 16.5113L3.42082 16.5194L3.41635 13.8469L7.67135 13.8398C9.16301 13.8373 10.0041 13.4775 10.0026 12.5675C10.0004 11.305 9.09207 10.7816 7.66624 10.7839L3.41125 10.7911L3.40678 8.11773L12.1901 8.10305ZM3.51329 3.53421L3.51776 6.20754L12.3019 6.19286L12.2974 3.51953L3.51412 3.53421L3.51329 3.53421ZM15.1675 6.57058C14.9387 6.576 14.711 6.53565 14.4979 6.45189C14.2848 6.36814 14.0906 6.24267 13.9267 6.08284C13.7628 5.92301 13.6324 5.73205 13.5433 5.52117C13.4542 5.31028 13.408 5.08371 13.4077 4.85476C13.4073 4.62581 13.4526 4.39909 13.5411 4.18791C13.6295 3.97673 13.7592 3.78533 13.9226 3.62496C14.086 3.46459 14.2798 3.33846 14.4926 3.254C14.7054 3.16953 14.9329 3.12842 15.1618 3.13308C15.6111 3.14222 16.039 3.32694 16.3538 3.64766C16.6685 3.96839 16.8452 4.39962 16.846 4.84902C16.8467 5.29841 16.6715 5.73024 16.3578 6.05201C16.0441 6.37379 15.6168 6.55993 15.1675 6.57058Z" fill="white"/>
</svg>
