<svg width="16" height="20" viewBox="0 0 16 20" fill="none" xmlns="http://www.w3.org/2000/svg">
<path d="M14.1643 19.7091C13.8548 19.0138 13.6452 18.2667 13.5497 17.481C14.0363 18.291 14.8009 18.8964 15.7009 19.1841C15.2472 18.423 14.9273 17.5898 14.7551 16.7207C15.3784 16.1349 15.7909 15.3598 15.9286 14.5156C16.0662 13.6714 15.9213 12.8054 15.5163 12.0521C15.1113 11.2987 14.4689 10.7001 13.6889 10.3492C12.9089 9.99834 12.0348 9.9148 11.2024 10.1116C11.2773 8.56786 11.676 7.05714 12.3726 5.67747C13.0692 4.2978 14.048 3.08001 15.2457 2.10314C14.6702 1.77077 14.0032 1.58022 13.2932 1.58141C12.654 1.5821 12.0249 1.74055 11.4617 2.0427C10.8984 2.34485 10.4185 2.78135 10.0644 3.31347C10.083 2.697 10.2485 2.09389 10.5473 1.55433L10.4973 1.55441C9.60084 1.55585 8.73249 1.86739 8.03959 2.43617C7.3467 3.00495 6.87192 3.79595 6.69583 4.67493C6.54011 4.10335 6.51631 3.50385 6.62623 2.92171C5.85531 3.17092 5.1816 3.65496 4.69944 4.30607C4.21728 4.95719 3.95079 5.74278 3.9373 6.55288C2.85549 5.17954 2.26709 3.48224 2.26674 1.734C2.26614 1.42431 2.28371 1.11486 2.31936 0.80724C1.18135 2.58371 0.579263 4.65044 0.58514 6.76015C0.597072 13.9018 6.51859 17.7961 11.6486 17.7875C11.8152 17.7872 11.9836 17.7828 12.1502 17.775C12.7007 18.5335 13.3818 19.1879 14.1618 19.7075L14.1643 19.7091Z" fill="white"/>
</svg>
